<svg width="47" height="40" viewBox="0 0 47 40" fill="currentColor" xmlns="http://www.w3.org/2000/svg" class="logo__icon" data-v-1542a65c=""><path fill-rule="evenodd" clip-rule="evenodd" d="M36.586 0H3.42A3.42 3.42 0 000 3.42v33.16A3.42 3.42 0 003.42 40h33.166A3.42 3.42 0 0040 36.58V3.42A3.42 3.42 0 0036.586 0zm.76 25.726A11.614 11.614 0 0125.73 37.332H14.296a11.61 11.61 0 01-11.61-11.607V14.268A11.607 11.607 0 0114.296 2.66h11.459A11.617 11.617 0 0137.37 14.268l-.026 11.457z"></path><path d="M44.488 0c.434.001.861.112 1.24.322.397.21.724.531.94.923a2.52 2.52 0 010 2.5c-.217.39-.54.712-.934.928A2.555 2.555 0 0144.482 5a2.582 2.582 0 01-1.219-.333 2.365 2.365 0 01-.928-.928 2.493 2.493 0 010-2.5c.213-.394.535-.72.928-.939a2.544 2.544 0 011.225-.3zm0 .41a2.163 2.163 0 00-1.033.272c-.33.177-.602.444-.785.77a2.097 2.097 0 000 2.085c.18.325.451.592.78.77a2.091 2.091 0 002.087 0c.328-.178.599-.445.78-.77a2.097 2.097 0 000-2.085 1.933 1.933 0 00-.786-.77A2.163 2.163 0 0044.488.41zm-1 3.373V1.092h.928c.233-.011.467.013.692.07.14.047.26.14.34.263a.713.713 0 01.073.671.704.704 0 01-.16.235.81.81 0 01-.55.245.758.758 0 01.231.142c.153.168.288.35.401.546l.33.546h-.55l-.24-.426a2.185 2.185 0 00-.457-.627.585.585 0 00-.351-.093h-.258V3.81l-.429-.027zm.434-1.518h.55a.833.833 0 00.515-.114.356.356 0 00.143-.295.32.32 0 00-.071-.213.39.39 0 00-.181-.142 1.325 1.325 0 00-.44-.049h-.5l-.016.813z"></path></svg>